<mxfile host="app.diagrams.net" modified="2023-04-20T23:01:52.072Z" agent="Mozilla/5.0 (Windows NT 10.0; Win64; x64) AppleWebKit/537.36 (KHTML, like Gecko) Chrome/110.0.0.0 YaBrowser/23.3.1.895 Yowser/2.5 Safari/537.36" etag="7MTwsGATh_JTPhNH3Lwj" version="21.2.0" type="github">
  <diagram name="Sayfa -1" id="oRpZfEt3hDue-d5Uw1ic">
    <mxGraphModel dx="1072" dy="2817" grid="1" gridSize="10" guides="1" tooltips="1" connect="1" arrows="1" fold="1" page="1" pageScale="1" pageWidth="827" pageHeight="1169" math="0" shadow="0">
      <root>
        <mxCell id="0" />
        <mxCell id="1" parent="0" />
        <mxCell id="whnHXM34Jwovgv_mvFyR-5" value="Library Material" style="swimlane;fontStyle=0;childLayout=stackLayout;horizontal=1;startSize=26;fillColor=none;horizontalStack=0;resizeParent=1;resizeParentMax=0;resizeLast=0;collapsible=1;marginBottom=0;whiteSpace=wrap;html=1;" parent="1" vertex="1">
          <mxGeometry x="423" y="-2300" width="140" height="208" as="geometry" />
        </mxCell>
        <mxCell id="whnHXM34Jwovgv_mvFyR-7" value="Title" style="text;strokeColor=none;fillColor=none;align=left;verticalAlign=top;spacingLeft=4;spacingRight=4;overflow=hidden;rotatable=0;points=[[0,0.5],[1,0.5]];portConstraint=eastwest;whiteSpace=wrap;html=1;" parent="whnHXM34Jwovgv_mvFyR-5" vertex="1">
          <mxGeometry y="26" width="140" height="26" as="geometry" />
        </mxCell>
        <mxCell id="whnHXM34Jwovgv_mvFyR-8" value="Author" style="text;strokeColor=none;fillColor=none;align=left;verticalAlign=top;spacingLeft=4;spacingRight=4;overflow=hidden;rotatable=0;points=[[0,0.5],[1,0.5]];portConstraint=eastwest;whiteSpace=wrap;html=1;" parent="whnHXM34Jwovgv_mvFyR-5" vertex="1">
          <mxGeometry y="52" width="140" height="26" as="geometry" />
        </mxCell>
        <mxCell id="whnHXM34Jwovgv_mvFyR-9" value="Publisher" style="text;strokeColor=none;fillColor=none;align=left;verticalAlign=top;spacingLeft=4;spacingRight=4;overflow=hidden;rotatable=0;points=[[0,0.5],[1,0.5]];portConstraint=eastwest;whiteSpace=wrap;html=1;" parent="whnHXM34Jwovgv_mvFyR-5" vertex="1">
          <mxGeometry y="78" width="140" height="26" as="geometry" />
        </mxCell>
        <mxCell id="whnHXM34Jwovgv_mvFyR-12" value="Acceptance Date" style="text;strokeColor=none;fillColor=none;align=left;verticalAlign=top;spacingLeft=4;spacingRight=4;overflow=hidden;rotatable=0;points=[[0,0.5],[1,0.5]];portConstraint=eastwest;whiteSpace=wrap;html=1;" parent="whnHXM34Jwovgv_mvFyR-5" vertex="1">
          <mxGeometry y="104" width="140" height="26" as="geometry" />
        </mxCell>
        <mxCell id="whnHXM34Jwovgv_mvFyR-13" value="Description" style="text;strokeColor=none;fillColor=none;align=left;verticalAlign=top;spacingLeft=4;spacingRight=4;overflow=hidden;rotatable=0;points=[[0,0.5],[1,0.5]];portConstraint=eastwest;whiteSpace=wrap;html=1;" parent="whnHXM34Jwovgv_mvFyR-5" vertex="1">
          <mxGeometry y="130" width="140" height="26" as="geometry" />
        </mxCell>
        <mxCell id="whnHXM34Jwovgv_mvFyR-14" value="Price" style="text;strokeColor=none;fillColor=none;align=left;verticalAlign=top;spacingLeft=4;spacingRight=4;overflow=hidden;rotatable=0;points=[[0,0.5],[1,0.5]];portConstraint=eastwest;whiteSpace=wrap;html=1;" parent="whnHXM34Jwovgv_mvFyR-5" vertex="1">
          <mxGeometry y="156" width="140" height="26" as="geometry" />
        </mxCell>
        <mxCell id="whnHXM34Jwovgv_mvFyR-15" value="Shelf Number" style="text;strokeColor=none;fillColor=none;align=left;verticalAlign=top;spacingLeft=4;spacingRight=4;overflow=hidden;rotatable=0;points=[[0,0.5],[1,0.5]];portConstraint=eastwest;whiteSpace=wrap;html=1;" parent="whnHXM34Jwovgv_mvFyR-5" vertex="1">
          <mxGeometry y="182" width="140" height="26" as="geometry" />
        </mxCell>
        <mxCell id="whnHXM34Jwovgv_mvFyR-29" value="Account" style="swimlane;fontStyle=0;childLayout=stackLayout;horizontal=1;startSize=26;fillColor=none;horizontalStack=0;resizeParent=1;resizeParentMax=0;resizeLast=0;collapsible=1;marginBottom=0;whiteSpace=wrap;html=1;" parent="1" vertex="1">
          <mxGeometry x="399" y="-1900" width="140" height="164" as="geometry" />
        </mxCell>
        <mxCell id="whnHXM34Jwovgv_mvFyR-30" value="Login" style="text;strokeColor=none;fillColor=none;align=left;verticalAlign=top;spacingLeft=4;spacingRight=4;overflow=hidden;rotatable=0;points=[[0,0.5],[1,0.5]];portConstraint=eastwest;whiteSpace=wrap;html=1;" parent="whnHXM34Jwovgv_mvFyR-29" vertex="1">
          <mxGeometry y="26" width="140" height="26" as="geometry" />
        </mxCell>
        <mxCell id="whnHXM34Jwovgv_mvFyR-31" value="Password" style="text;strokeColor=none;fillColor=none;align=left;verticalAlign=top;spacingLeft=4;spacingRight=4;overflow=hidden;rotatable=0;points=[[0,0.5],[1,0.5]];portConstraint=eastwest;whiteSpace=wrap;html=1;" parent="whnHXM34Jwovgv_mvFyR-29" vertex="1">
          <mxGeometry y="52" width="140" height="26" as="geometry" />
        </mxCell>
        <mxCell id="whnHXM34Jwovgv_mvFyR-32" value="Personal Data" style="text;strokeColor=none;fillColor=none;align=left;verticalAlign=top;spacingLeft=4;spacingRight=4;overflow=hidden;rotatable=0;points=[[0,0.5],[1,0.5]];portConstraint=eastwest;whiteSpace=wrap;html=1;" parent="whnHXM34Jwovgv_mvFyR-29" vertex="1">
          <mxGeometry y="78" width="140" height="26" as="geometry" />
        </mxCell>
        <mxCell id="whnHXM34Jwovgv_mvFyR-33" value="Permissions" style="text;strokeColor=none;fillColor=none;align=left;verticalAlign=top;spacingLeft=4;spacingRight=4;overflow=hidden;rotatable=0;points=[[0,0.5],[1,0.5]];portConstraint=eastwest;whiteSpace=wrap;html=1;" parent="whnHXM34Jwovgv_mvFyR-29" vertex="1">
          <mxGeometry y="104" width="140" height="26" as="geometry" />
        </mxCell>
        <mxCell id="iuKiGmSGQjf4OmbFuYXv-62" value="" style="line;strokeWidth=1;fillColor=none;align=left;verticalAlign=middle;spacingTop=-1;spacingLeft=3;spacingRight=3;rotatable=0;labelPosition=right;points=[];portConstraint=eastwest;strokeColor=inherit;" parent="whnHXM34Jwovgv_mvFyR-29" vertex="1">
          <mxGeometry y="130" width="140" height="8" as="geometry" />
        </mxCell>
        <mxCell id="iuKiGmSGQjf4OmbFuYXv-63" value="&amp;nbsp;" style="text;strokeColor=none;fillColor=none;align=left;verticalAlign=top;spacingLeft=4;spacingRight=4;overflow=hidden;rotatable=0;points=[[0,0.5],[1,0.5]];portConstraint=eastwest;whiteSpace=wrap;html=1;" parent="whnHXM34Jwovgv_mvFyR-29" vertex="1">
          <mxGeometry y="138" width="140" height="26" as="geometry" />
        </mxCell>
        <mxCell id="iuKiGmSGQjf4OmbFuYXv-1" value="Library" style="swimlane;fontStyle=1;align=center;verticalAlign=top;childLayout=stackLayout;horizontal=1;startSize=26;horizontalStack=0;resizeParent=1;resizeParentMax=0;resizeLast=0;collapsible=1;marginBottom=0;whiteSpace=wrap;html=1;" parent="1" vertex="1">
          <mxGeometry x="629" y="-2080" width="160" height="112" as="geometry" />
        </mxCell>
        <mxCell id="iuKiGmSGQjf4OmbFuYXv-2" value="Name" style="text;strokeColor=none;fillColor=none;align=left;verticalAlign=top;spacingLeft=4;spacingRight=4;overflow=hidden;rotatable=0;points=[[0,0.5],[1,0.5]];portConstraint=eastwest;whiteSpace=wrap;html=1;" parent="iuKiGmSGQjf4OmbFuYXv-1" vertex="1">
          <mxGeometry y="26" width="160" height="26" as="geometry" />
        </mxCell>
        <mxCell id="iuKiGmSGQjf4OmbFuYXv-5" value="Adress" style="text;strokeColor=none;fillColor=none;align=left;verticalAlign=top;spacingLeft=4;spacingRight=4;overflow=hidden;rotatable=0;points=[[0,0.5],[1,0.5]];portConstraint=eastwest;whiteSpace=wrap;html=1;" parent="iuKiGmSGQjf4OmbFuYXv-1" vertex="1">
          <mxGeometry y="52" width="160" height="26" as="geometry" />
        </mxCell>
        <mxCell id="iuKiGmSGQjf4OmbFuYXv-3" value="" style="line;strokeWidth=1;fillColor=none;align=left;verticalAlign=middle;spacingTop=-1;spacingLeft=3;spacingRight=3;rotatable=0;labelPosition=right;points=[];portConstraint=eastwest;strokeColor=inherit;" parent="iuKiGmSGQjf4OmbFuYXv-1" vertex="1">
          <mxGeometry y="78" width="160" height="8" as="geometry" />
        </mxCell>
        <mxCell id="iuKiGmSGQjf4OmbFuYXv-60" value="&amp;nbsp;" style="text;strokeColor=none;fillColor=none;align=left;verticalAlign=top;spacingLeft=4;spacingRight=4;overflow=hidden;rotatable=0;points=[[0,0.5],[1,0.5]];portConstraint=eastwest;whiteSpace=wrap;html=1;" parent="iuKiGmSGQjf4OmbFuYXv-1" vertex="1">
          <mxGeometry y="86" width="160" height="26" as="geometry" />
        </mxCell>
        <mxCell id="iuKiGmSGQjf4OmbFuYXv-6" value="Online Library System" style="swimlane;fontStyle=1;align=center;verticalAlign=top;childLayout=stackLayout;horizontal=1;startSize=26;horizontalStack=0;resizeParent=1;resizeParentMax=0;resizeLast=0;collapsible=1;marginBottom=0;whiteSpace=wrap;html=1;" parent="1" vertex="1">
          <mxGeometry x="629" y="-1900" width="160" height="138" as="geometry" />
        </mxCell>
        <mxCell id="iuKiGmSGQjf4OmbFuYXv-7" value="Acoounts" style="text;strokeColor=none;fillColor=none;align=left;verticalAlign=top;spacingLeft=4;spacingRight=4;overflow=hidden;rotatable=0;points=[[0,0.5],[1,0.5]];portConstraint=eastwest;whiteSpace=wrap;html=1;" parent="iuKiGmSGQjf4OmbFuYXv-6" vertex="1">
          <mxGeometry y="26" width="160" height="26" as="geometry" />
        </mxCell>
        <mxCell id="iuKiGmSGQjf4OmbFuYXv-11" value="Search" style="text;strokeColor=none;fillColor=none;align=left;verticalAlign=top;spacingLeft=4;spacingRight=4;overflow=hidden;rotatable=0;points=[[0,0.5],[1,0.5]];portConstraint=eastwest;whiteSpace=wrap;html=1;" parent="iuKiGmSGQjf4OmbFuYXv-6" vertex="1">
          <mxGeometry y="52" width="160" height="26" as="geometry" />
        </mxCell>
        <mxCell id="iuKiGmSGQjf4OmbFuYXv-12" value="Database" style="text;strokeColor=none;fillColor=none;align=left;verticalAlign=top;spacingLeft=4;spacingRight=4;overflow=hidden;rotatable=0;points=[[0,0.5],[1,0.5]];portConstraint=eastwest;whiteSpace=wrap;html=1;" parent="iuKiGmSGQjf4OmbFuYXv-6" vertex="1">
          <mxGeometry y="78" width="160" height="26" as="geometry" />
        </mxCell>
        <mxCell id="iuKiGmSGQjf4OmbFuYXv-8" value="" style="line;strokeWidth=1;fillColor=none;align=left;verticalAlign=middle;spacingTop=-1;spacingLeft=3;spacingRight=3;rotatable=0;labelPosition=right;points=[];portConstraint=eastwest;strokeColor=inherit;" parent="iuKiGmSGQjf4OmbFuYXv-6" vertex="1">
          <mxGeometry y="104" width="160" height="8" as="geometry" />
        </mxCell>
        <mxCell id="iuKiGmSGQjf4OmbFuYXv-59" value="&amp;nbsp;" style="text;strokeColor=none;fillColor=none;align=left;verticalAlign=top;spacingLeft=4;spacingRight=4;overflow=hidden;rotatable=0;points=[[0,0.5],[1,0.5]];portConstraint=eastwest;whiteSpace=wrap;html=1;" parent="iuKiGmSGQjf4OmbFuYXv-6" vertex="1">
          <mxGeometry y="112" width="160" height="26" as="geometry" />
        </mxCell>
        <mxCell id="iuKiGmSGQjf4OmbFuYXv-13" value="" style="endArrow=open;endFill=1;endSize=12;html=1;rounded=0;entryX=0.5;entryY=0;entryDx=0;entryDy=0;exitX=0.5;exitY=1;exitDx=0;exitDy=0;" parent="1" source="iuKiGmSGQjf4OmbFuYXv-1" target="iuKiGmSGQjf4OmbFuYXv-6" edge="1">
          <mxGeometry width="160" relative="1" as="geometry">
            <mxPoint x="709" y="-1980" as="sourcePoint" />
            <mxPoint x="829" y="-1780" as="targetPoint" />
          </mxGeometry>
        </mxCell>
        <mxCell id="iuKiGmSGQjf4OmbFuYXv-14" value="1" style="edgeLabel;html=1;align=center;verticalAlign=middle;resizable=0;points=[];" parent="iuKiGmSGQjf4OmbFuYXv-13" vertex="1" connectable="0">
          <mxGeometry x="0.4" relative="1" as="geometry">
            <mxPoint x="13" y="-3" as="offset" />
          </mxGeometry>
        </mxCell>
        <mxCell id="iuKiGmSGQjf4OmbFuYXv-16" value="" style="endArrow=open;endFill=1;endSize=12;html=1;rounded=0;exitX=0;exitY=0.923;exitDx=0;exitDy=0;exitPerimeter=0;entryX=1;entryY=0.929;entryDx=0;entryDy=0;entryPerimeter=0;" parent="1" source="iuKiGmSGQjf4OmbFuYXv-7" target="whnHXM34Jwovgv_mvFyR-30" edge="1">
          <mxGeometry width="160" relative="1" as="geometry">
            <mxPoint x="489" y="-1950" as="sourcePoint" />
            <mxPoint x="649" y="-1950" as="targetPoint" />
          </mxGeometry>
        </mxCell>
        <mxCell id="iuKiGmSGQjf4OmbFuYXv-17" value="1...*" style="edgeLabel;html=1;align=center;verticalAlign=middle;resizable=0;points=[];" parent="iuKiGmSGQjf4OmbFuYXv-16" vertex="1" connectable="0">
          <mxGeometry x="-0.4668" y="-1" relative="1" as="geometry">
            <mxPoint x="-36" y="-9" as="offset" />
          </mxGeometry>
        </mxCell>
        <mxCell id="iuKiGmSGQjf4OmbFuYXv-19" value="Library Staff" style="swimlane;fontStyle=1;align=center;verticalAlign=top;childLayout=stackLayout;horizontal=1;startSize=26;horizontalStack=0;resizeParent=1;resizeParentMax=0;resizeLast=0;collapsible=1;marginBottom=0;whiteSpace=wrap;html=1;" parent="1" vertex="1">
          <mxGeometry x="39" y="-1900" width="210" height="190" as="geometry" />
        </mxCell>
        <mxCell id="iuKiGmSGQjf4OmbFuYXv-20" value="&amp;nbsp;" style="text;strokeColor=none;fillColor=none;align=left;verticalAlign=top;spacingLeft=4;spacingRight=4;overflow=hidden;rotatable=0;points=[[0,0.5],[1,0.5]];portConstraint=eastwest;whiteSpace=wrap;html=1;" parent="iuKiGmSGQjf4OmbFuYXv-19" vertex="1">
          <mxGeometry y="26" width="210" height="26" as="geometry" />
        </mxCell>
        <mxCell id="iuKiGmSGQjf4OmbFuYXv-21" value="" style="line;strokeWidth=1;fillColor=none;align=left;verticalAlign=middle;spacingTop=-1;spacingLeft=3;spacingRight=3;rotatable=0;labelPosition=right;points=[];portConstraint=eastwest;strokeColor=inherit;" parent="iuKiGmSGQjf4OmbFuYXv-19" vertex="1">
          <mxGeometry y="52" width="210" height="8" as="geometry" />
        </mxCell>
        <mxCell id="iuKiGmSGQjf4OmbFuYXv-22" value="Change (Password, data)" style="text;strokeColor=none;fillColor=none;align=left;verticalAlign=top;spacingLeft=4;spacingRight=4;overflow=hidden;rotatable=0;points=[[0,0.5],[1,0.5]];portConstraint=eastwest;whiteSpace=wrap;html=1;" parent="iuKiGmSGQjf4OmbFuYXv-19" vertex="1">
          <mxGeometry y="60" width="210" height="26" as="geometry" />
        </mxCell>
        <mxCell id="iuKiGmSGQjf4OmbFuYXv-28" value="Change (User password, user data)" style="text;strokeColor=none;fillColor=none;align=left;verticalAlign=top;spacingLeft=4;spacingRight=4;overflow=hidden;rotatable=0;points=[[0,0.5],[1,0.5]];portConstraint=eastwest;whiteSpace=wrap;html=1;" parent="iuKiGmSGQjf4OmbFuYXv-19" vertex="1">
          <mxGeometry y="86" width="210" height="26" as="geometry" />
        </mxCell>
        <mxCell id="iuKiGmSGQjf4OmbFuYXv-30" value="Delete (User Account)" style="text;strokeColor=none;fillColor=none;align=left;verticalAlign=top;spacingLeft=4;spacingRight=4;overflow=hidden;rotatable=0;points=[[0,0.5],[1,0.5]];portConstraint=eastwest;whiteSpace=wrap;html=1;" parent="iuKiGmSGQjf4OmbFuYXv-19" vertex="1">
          <mxGeometry y="112" width="210" height="26" as="geometry" />
        </mxCell>
        <mxCell id="iuKiGmSGQjf4OmbFuYXv-31" value="Material (Add, Delete)" style="text;strokeColor=none;fillColor=none;align=left;verticalAlign=top;spacingLeft=4;spacingRight=4;overflow=hidden;rotatable=0;points=[[0,0.5],[1,0.5]];portConstraint=eastwest;whiteSpace=wrap;html=1;" parent="iuKiGmSGQjf4OmbFuYXv-19" vertex="1">
          <mxGeometry y="138" width="210" height="26" as="geometry" />
        </mxCell>
        <mxCell id="iuKiGmSGQjf4OmbFuYXv-33" value="Return (Accept)" style="text;strokeColor=none;fillColor=none;align=left;verticalAlign=top;spacingLeft=4;spacingRight=4;overflow=hidden;rotatable=0;points=[[0,0.5],[1,0.5]];portConstraint=eastwest;whiteSpace=wrap;html=1;" parent="iuKiGmSGQjf4OmbFuYXv-19" vertex="1">
          <mxGeometry y="164" width="210" height="26" as="geometry" />
        </mxCell>
        <mxCell id="iuKiGmSGQjf4OmbFuYXv-23" value="Customer" style="swimlane;fontStyle=1;align=center;verticalAlign=top;childLayout=stackLayout;horizontal=1;startSize=26;horizontalStack=0;resizeParent=1;resizeParentMax=0;resizeLast=0;collapsible=1;marginBottom=0;whiteSpace=wrap;html=1;" parent="1" vertex="1">
          <mxGeometry x="89" y="-2040" width="160" height="86" as="geometry" />
        </mxCell>
        <mxCell id="iuKiGmSGQjf4OmbFuYXv-24" value="&amp;nbsp;" style="text;strokeColor=none;fillColor=none;align=left;verticalAlign=top;spacingLeft=4;spacingRight=4;overflow=hidden;rotatable=0;points=[[0,0.5],[1,0.5]];portConstraint=eastwest;whiteSpace=wrap;html=1;" parent="iuKiGmSGQjf4OmbFuYXv-23" vertex="1">
          <mxGeometry y="26" width="160" height="26" as="geometry" />
        </mxCell>
        <mxCell id="iuKiGmSGQjf4OmbFuYXv-25" value="" style="line;strokeWidth=1;fillColor=none;align=left;verticalAlign=middle;spacingTop=-1;spacingLeft=3;spacingRight=3;rotatable=0;labelPosition=right;points=[];portConstraint=eastwest;strokeColor=inherit;" parent="iuKiGmSGQjf4OmbFuYXv-23" vertex="1">
          <mxGeometry y="52" width="160" height="8" as="geometry" />
        </mxCell>
        <mxCell id="iuKiGmSGQjf4OmbFuYXv-26" value="Change (Password, data)" style="text;strokeColor=none;fillColor=none;align=left;verticalAlign=top;spacingLeft=4;spacingRight=4;overflow=hidden;rotatable=0;points=[[0,0.5],[1,0.5]];portConstraint=eastwest;whiteSpace=wrap;html=1;" parent="iuKiGmSGQjf4OmbFuYXv-23" vertex="1">
          <mxGeometry y="60" width="160" height="26" as="geometry" />
        </mxCell>
        <mxCell id="iuKiGmSGQjf4OmbFuYXv-34" value="" style="endArrow=open;endFill=1;endSize=12;html=1;rounded=0;exitX=0;exitY=0.5;exitDx=0;exitDy=0;entryX=1.01;entryY=0.138;entryDx=0;entryDy=0;entryPerimeter=0;edgeStyle=elbowEdgeStyle;" parent="1" source="whnHXM34Jwovgv_mvFyR-30" target="iuKiGmSGQjf4OmbFuYXv-23" edge="1">
          <mxGeometry width="160" relative="1" as="geometry">
            <mxPoint x="439" y="-1954" as="sourcePoint" />
            <mxPoint x="349" y="-1954" as="targetPoint" />
          </mxGeometry>
        </mxCell>
        <mxCell id="iuKiGmSGQjf4OmbFuYXv-35" value="1...*" style="edgeLabel;html=1;align=center;verticalAlign=middle;resizable=0;points=[];" parent="iuKiGmSGQjf4OmbFuYXv-34" vertex="1" connectable="0">
          <mxGeometry x="-0.4668" y="-1" relative="1" as="geometry">
            <mxPoint x="-59" y="-109" as="offset" />
          </mxGeometry>
        </mxCell>
        <mxCell id="iuKiGmSGQjf4OmbFuYXv-36" value="" style="endArrow=open;endFill=1;endSize=12;html=1;rounded=0;exitX=0;exitY=0.5;exitDx=0;exitDy=0;entryX=0.996;entryY=0.321;entryDx=0;entryDy=0;entryPerimeter=0;edgeStyle=elbowEdgeStyle;" parent="1" source="whnHXM34Jwovgv_mvFyR-30" target="iuKiGmSGQjf4OmbFuYXv-20" edge="1">
          <mxGeometry width="160" relative="1" as="geometry">
            <mxPoint x="339" y="-1900" as="sourcePoint" />
            <mxPoint x="249" y="-1900" as="targetPoint" />
          </mxGeometry>
        </mxCell>
        <mxCell id="iuKiGmSGQjf4OmbFuYXv-37" value="1...*" style="edgeLabel;html=1;align=center;verticalAlign=middle;resizable=0;points=[];" parent="iuKiGmSGQjf4OmbFuYXv-36" vertex="1" connectable="0">
          <mxGeometry x="-0.4668" y="-1" relative="1" as="geometry">
            <mxPoint x="-87" y="-6" as="offset" />
          </mxGeometry>
        </mxCell>
        <mxCell id="iuKiGmSGQjf4OmbFuYXv-38" value="Administrator" style="swimlane;fontStyle=1;align=center;verticalAlign=top;childLayout=stackLayout;horizontal=1;startSize=26;horizontalStack=0;resizeParent=1;resizeParentMax=0;resizeLast=0;collapsible=1;marginBottom=0;whiteSpace=wrap;html=1;" parent="1" vertex="1">
          <mxGeometry x="39" y="-1680" width="210" height="164" as="geometry" />
        </mxCell>
        <mxCell id="iuKiGmSGQjf4OmbFuYXv-39" value="&amp;nbsp;" style="text;strokeColor=none;fillColor=none;align=left;verticalAlign=top;spacingLeft=4;spacingRight=4;overflow=hidden;rotatable=0;points=[[0,0.5],[1,0.5]];portConstraint=eastwest;whiteSpace=wrap;html=1;" parent="iuKiGmSGQjf4OmbFuYXv-38" vertex="1">
          <mxGeometry y="26" width="210" height="26" as="geometry" />
        </mxCell>
        <mxCell id="iuKiGmSGQjf4OmbFuYXv-40" value="" style="line;strokeWidth=1;fillColor=none;align=left;verticalAlign=middle;spacingTop=-1;spacingLeft=3;spacingRight=3;rotatable=0;labelPosition=right;points=[];portConstraint=eastwest;strokeColor=inherit;" parent="iuKiGmSGQjf4OmbFuYXv-38" vertex="1">
          <mxGeometry y="52" width="210" height="8" as="geometry" />
        </mxCell>
        <mxCell id="iuKiGmSGQjf4OmbFuYXv-41" value="Change (Password, data)" style="text;strokeColor=none;fillColor=none;align=left;verticalAlign=top;spacingLeft=4;spacingRight=4;overflow=hidden;rotatable=0;points=[[0,0.5],[1,0.5]];portConstraint=eastwest;whiteSpace=wrap;html=1;" parent="iuKiGmSGQjf4OmbFuYXv-38" vertex="1">
          <mxGeometry y="60" width="210" height="26" as="geometry" />
        </mxCell>
        <mxCell id="iuKiGmSGQjf4OmbFuYXv-44" value="Create (Library Employee Account)" style="text;strokeColor=none;fillColor=none;align=left;verticalAlign=top;spacingLeft=4;spacingRight=4;overflow=hidden;rotatable=0;points=[[0,0.5],[1,0.5]];portConstraint=eastwest;whiteSpace=wrap;html=1;" parent="iuKiGmSGQjf4OmbFuYXv-38" vertex="1">
          <mxGeometry y="86" width="210" height="26" as="geometry" />
        </mxCell>
        <mxCell id="iuKiGmSGQjf4OmbFuYXv-45" value="Delete (Libraryt Employee Account)" style="text;strokeColor=none;fillColor=none;align=left;verticalAlign=top;spacingLeft=4;spacingRight=4;overflow=hidden;rotatable=0;points=[[0,0.5],[1,0.5]];portConstraint=eastwest;whiteSpace=wrap;html=1;" parent="iuKiGmSGQjf4OmbFuYXv-38" vertex="1">
          <mxGeometry y="112" width="210" height="26" as="geometry" />
        </mxCell>
        <mxCell id="iuKiGmSGQjf4OmbFuYXv-46" value="Edit (System Parameters)" style="text;strokeColor=none;fillColor=none;align=left;verticalAlign=top;spacingLeft=4;spacingRight=4;overflow=hidden;rotatable=0;points=[[0,0.5],[1,0.5]];portConstraint=eastwest;whiteSpace=wrap;html=1;" parent="iuKiGmSGQjf4OmbFuYXv-38" vertex="1">
          <mxGeometry y="138" width="210" height="26" as="geometry" />
        </mxCell>
        <mxCell id="iuKiGmSGQjf4OmbFuYXv-47" value="" style="endArrow=open;endFill=1;endSize=12;html=1;rounded=0;exitX=0;exitY=0.5;exitDx=0;exitDy=0;entryX=1;entryY=0.5;entryDx=0;entryDy=0;edgeStyle=elbowEdgeStyle;" parent="1" source="whnHXM34Jwovgv_mvFyR-30" target="iuKiGmSGQjf4OmbFuYXv-39" edge="1">
          <mxGeometry width="160" relative="1" as="geometry">
            <mxPoint x="409" y="-1851" as="sourcePoint" />
            <mxPoint x="258" y="-1846" as="targetPoint" />
          </mxGeometry>
        </mxCell>
        <mxCell id="iuKiGmSGQjf4OmbFuYXv-48" value="1...*" style="edgeLabel;html=1;align=center;verticalAlign=middle;resizable=0;points=[];" parent="iuKiGmSGQjf4OmbFuYXv-47" vertex="1" connectable="0">
          <mxGeometry x="-0.4668" y="-1" relative="1" as="geometry">
            <mxPoint x="-87" y="-6" as="offset" />
          </mxGeometry>
        </mxCell>
        <mxCell id="iuKiGmSGQjf4OmbFuYXv-49" value="Borrow" style="swimlane;fontStyle=1;align=center;verticalAlign=top;childLayout=stackLayout;horizontal=1;startSize=26;horizontalStack=0;resizeParent=1;resizeParentMax=0;resizeLast=0;collapsible=1;marginBottom=0;whiteSpace=wrap;html=1;" parent="1" vertex="1">
          <mxGeometry x="89" y="-2300" width="160" height="112" as="geometry" />
        </mxCell>
        <mxCell id="iuKiGmSGQjf4OmbFuYXv-50" value="Borrow Date" style="text;strokeColor=none;fillColor=none;align=left;verticalAlign=top;spacingLeft=4;spacingRight=4;overflow=hidden;rotatable=0;points=[[0,0.5],[1,0.5]];portConstraint=eastwest;whiteSpace=wrap;html=1;" parent="iuKiGmSGQjf4OmbFuYXv-49" vertex="1">
          <mxGeometry y="26" width="160" height="26" as="geometry" />
        </mxCell>
        <mxCell id="iuKiGmSGQjf4OmbFuYXv-53" value="Deadline" style="text;strokeColor=none;fillColor=none;align=left;verticalAlign=top;spacingLeft=4;spacingRight=4;overflow=hidden;rotatable=0;points=[[0,0.5],[1,0.5]];portConstraint=eastwest;whiteSpace=wrap;html=1;" parent="iuKiGmSGQjf4OmbFuYXv-49" vertex="1">
          <mxGeometry y="52" width="160" height="26" as="geometry" />
        </mxCell>
        <mxCell id="iuKiGmSGQjf4OmbFuYXv-51" value="" style="line;strokeWidth=1;fillColor=none;align=left;verticalAlign=middle;spacingTop=-1;spacingLeft=3;spacingRight=3;rotatable=0;labelPosition=right;points=[];portConstraint=eastwest;strokeColor=inherit;" parent="iuKiGmSGQjf4OmbFuYXv-49" vertex="1">
          <mxGeometry y="78" width="160" height="8" as="geometry" />
        </mxCell>
        <mxCell id="iuKiGmSGQjf4OmbFuYXv-52" value="&amp;nbsp;" style="text;strokeColor=none;fillColor=none;align=left;verticalAlign=top;spacingLeft=4;spacingRight=4;overflow=hidden;rotatable=0;points=[[0,0.5],[1,0.5]];portConstraint=eastwest;whiteSpace=wrap;html=1;" parent="iuKiGmSGQjf4OmbFuYXv-49" vertex="1">
          <mxGeometry y="86" width="160" height="26" as="geometry" />
        </mxCell>
        <mxCell id="iuKiGmSGQjf4OmbFuYXv-55" value="" style="endArrow=open;endFill=1;endSize=12;html=1;rounded=0;exitX=0.5;exitY=0;exitDx=0;exitDy=0;entryX=0.516;entryY=1.128;entryDx=0;entryDy=0;entryPerimeter=0;" parent="1" source="iuKiGmSGQjf4OmbFuYXv-23" target="iuKiGmSGQjf4OmbFuYXv-52" edge="1">
          <mxGeometry width="160" relative="1" as="geometry">
            <mxPoint x="219" y="-2130" as="sourcePoint" />
            <mxPoint x="169" y="-2170" as="targetPoint" />
          </mxGeometry>
        </mxCell>
        <mxCell id="iuKiGmSGQjf4OmbFuYXv-56" value="1" style="edgeLabel;html=1;align=center;verticalAlign=middle;resizable=0;points=[];" parent="iuKiGmSGQjf4OmbFuYXv-55" vertex="1" connectable="0">
          <mxGeometry x="0.53" y="-2" relative="1" as="geometry">
            <mxPoint x="-11" y="-10" as="offset" />
          </mxGeometry>
        </mxCell>
        <mxCell id="iuKiGmSGQjf4OmbFuYXv-57" value="" style="endArrow=open;endFill=1;endSize=12;html=1;rounded=0;exitX=1;exitY=0.5;exitDx=0;exitDy=0;entryX=0;entryY=0.5;entryDx=0;entryDy=0;" parent="1" source="iuKiGmSGQjf4OmbFuYXv-53" target="whnHXM34Jwovgv_mvFyR-8" edge="1">
          <mxGeometry width="160" relative="1" as="geometry">
            <mxPoint x="259" y="-2240" as="sourcePoint" />
            <mxPoint x="419" y="-2240" as="targetPoint" />
          </mxGeometry>
        </mxCell>
        <mxCell id="iuKiGmSGQjf4OmbFuYXv-58" value="*" style="edgeLabel;html=1;align=center;verticalAlign=middle;resizable=0;points=[];" parent="iuKiGmSGQjf4OmbFuYXv-57" vertex="1" connectable="0">
          <mxGeometry x="0.6667" y="-3" relative="1" as="geometry">
            <mxPoint x="5" y="10" as="offset" />
          </mxGeometry>
        </mxCell>
      </root>
    </mxGraphModel>
  </diagram>
</mxfile>
